# xmcd
#
# Track frame offsets:
#	150
#	25077
#	59785
#	81705
#	96450
#	113519
#	133493
#	165310
#
# Disc length: 2473 seconds
#
# Revision: 18
# Processed by: cddbd v1.5.2PL0 Copyright (c) Steve Scherf et al.
# Submitted via: Jack! The Knife 20 Magnifico
#
DISCID=7009a708
DTITLE=Led Zeppelin - Houses Of The Holy
DYEAR=1973
DGENRE=Hard Rock
TTITLE0=The Song Remains The Same
TTITLE1=The Rain Song
TTITLE2=Over The Hills And Far Away
TTITLE3=The Crunge
TTITLE4=Dancing Days
TTITLE5=D'yer Mak'er
TTITLE6=No Quarter
TTITLE7=The Ocean
EXTD=Jimmy Page
EXTT0=Page, Plant
EXTT1=Page, Plant
EXTT2=Page, Plant
EXTT3=Bonham, Jones, Page, Plant
EXTT4=Page, Plant
EXTT5=Bonham, Jones, Page, Plant
EXTT6=Jones, Page, Plant
EXTT7=Bonham, Jones, Page, Plant
PLAYORDER=
